<svg xmlns="http://www.w3.org/2000/svg" viewBox="0 0 512 512" fill="none">
  <rect width="512" height="512" rx="64" fill="#001A4D"/>
  <!-- Receipt body -->
  <path d="M156 120h200c8 0 14 6 14 14v220c0 8-6 14-14 14H156c-8 0-14-6-14-14V134c0-8 6-14 14-14z" fill="white"/>
  <!-- Curled corner -->
  <path d="M342 120l28 28v-14c0-8-6-14-14-14h-14z" fill="#E8EEF5"/>
  <!-- Zigzag bottom -->
  <path d="M142 340h228l-12 16-12-16-12 16-12-16-12 16-12-16-12 16-12-16-12 16-12-16-12 16-12-16-12 16-12-16z" fill="white"/>
  <!-- Green check circle -->
  <circle cx="256" cy="175" r="28" fill="#4CAF50"/>
  <path d="M244 175l8 8 16-16" stroke="white" stroke-width="4" stroke-linecap="round" stroke-linejoin="round"/>
  <!-- Dollar sign -->
  <text x="200" y="230" font-family="Arial,sans-serif" font-size="28" font-weight="bold" fill="#4CAF50">$</text>
  <!-- Data lines -->
  <rect x="230" y="210" width="80" height="6" rx="3" fill="#B0BEC5"/>
  <rect x="230" y="224" width="60" height="6" rx="3" fill="#B0BEC5"/>
  <!-- Circular arrow -->
  <path d="M180 310a76 76 0 0 1 152 0" stroke="#4CAF50" stroke-width="10" stroke-linecap="round" fill="none"/>
  <path d="M332 310l12-12v24z" fill="#4CAF50"/>
</svg>
