<svg xmlns="http://www.w3.org/2000/svg" viewBox="0 0 512 640" role="img" aria-label="Receipt24">
  <rect width="512" height="640" fill="#0B1B48"/>
  <!-- Receipt body -->
  <path d="M176 96h160c8 0 14 6 14 14v248l-12 8 12 8-12 8 12 8-12 8 12 8-12 8 12 8v10c0 8-6 14-14 14H176c-8 0-14-6-14-14V110c0-8 6-14 14-14z" fill="#FFFFFF"/>
  <!-- Curl top right -->
  <path d="M336 96c18 2 34 16 34 36 0 18-14 30-30 30h-18V96z" fill="#E8ECF4"/>
  <path d="M322 96h28c12 0 22 12 22 26 0 12-8 20-18 22" fill="none" stroke="#C5CDDB" stroke-width="3"/>
  <!-- Green check circle -->
  <circle cx="256" cy="168" r="28" fill="#22C55E"/>
  <path d="M242 168l9 9 19-19" fill="none" stroke="#FFFFFF" stroke-width="5" stroke-linecap="round" stroke-linejoin="round"/>
  <!-- Dollar and lines -->
  <text x="198" y="280" font-family="Arial, Helvetica, sans-serif" font-size="36" font-weight="700" fill="#22C55E">$</text>
  <rect x="240" y="252" width="72" height="8" rx="4" fill="#C5CDDB"/>
  <rect x="240" y="272" width="56" height="8" rx="4" fill="#C5CDDB"/>
  <!-- Circular arrow -->
  <path d="M168 360c-28-36-24-92 18-124" fill="none" stroke="#22C55E" stroke-width="10" stroke-linecap="round"/>
  <path d="M320 360c28-36 24-92-18-124" fill="none" stroke="#22C55E" stroke-width="10" stroke-linecap="round"/>
  <path d="M286 220l28 8-8 28" fill="none" stroke="#22C55E" stroke-width="10" stroke-linecap="round" stroke-linejoin="round"/>
  <!-- Wordmark -->
  <text x="256" y="500" text-anchor="middle" font-family="Manrope, Inter, Arial, sans-serif" font-size="54" font-weight="700">
    <tspan fill="#FFFFFF">receipt</tspan><tspan fill="#22C55E">24</tspan>
  </text>
  <text x="256" y="548" text-anchor="middle" font-family="Manrope, Inter, Arial, sans-serif" font-size="16" font-weight="600" letter-spacing="3.2" fill="#FFFFFF">EVERY RECEIPT. ONE PLACE.</text>
</svg>
